<svg width="22" height="22" viewBox="0 0 22 22" fill="none" xmlns="http://www.w3.org/2000/svg">
<path fill-rule="evenodd" clip-rule="evenodd" d="M4.125 9.10937C4.125 6.35658 6.35658 4.125 9.10938 4.125C11.8622 4.125 14.0938 6.35658 14.0938 9.10937C14.0938 11.8622 11.8622 14.0937 9.10938 14.0937C6.35658 14.0937 4.125 11.8622 4.125 9.10937ZM9.10938 3.4375C5.97688 3.4375 3.4375 5.97688 3.4375 9.10937C3.4375 12.2419 5.97688 14.7812 9.10938 14.7812C10.5554 14.7812 11.875 14.2402 12.8767 13.3494L17.9757 18.4483C18.1099 18.5826 18.3276 18.5826 18.4618 18.4483C18.5961 18.3141 18.5961 18.0964 18.4618 17.9622L13.3621 12.8624C14.2453 11.8624 14.7812 10.5485 14.7812 9.10937C14.7812 5.97688 12.2419 3.4375 9.10938 3.4375Z" fill="white"/>
</svg>
